<?xml version="1.0" standalone="no"?>
<!DOCTYPE svg PUBLIC "-//W3C//DTD SVG 20010904//EN"
 "http://www.w3.org/TR/2001/REC-SVG-20010904/DTD/svg10.dtd">
<svg version="1.0" xmlns="http://www.w3.org/2000/svg"
 width="500.000000pt" height="500.000000pt" viewBox="0 0 500.000000 500.000000"
 preserveAspectRatio="xMidYMid meet">

<g transform="translate(0.000000,500.000000) scale(0.100000,-0.100000)"
fill="#000000" stroke="none">
<path d="M0 2523 l0 -2478 2475 2475 c1361 1361 2475 2476 2475 2477 0 2
-1114 3 -2475 3 l-2475 0 0 -2477z m1295 1222 c88 -300 162 -545 165 -545 3 0
68 215 143 478 76 262 147 507 158 545 l20 67 274 0 275 0 0 -770 0 -770 -191
0 -192 0 6 518 c4 284 9 532 13 550 3 17 2 32 -2 32 -5 0 -49 -143 -97 -318
-49 -174 -118 -422 -154 -549 l-66 -233 -198 0 c-180 0 -198 2 -203 18 -3 9
-73 258 -156 552 -84 294 -154 537 -157 540 -3 3 -2 -22 1 -55 3 -33 8 -284
12 -557 l6 -498 -186 0 -186 0 0 770 0 770 278 0 277 0 160 -545z"/>
<path d="M2530 2465 l-2465 -2465 2468 0 2467 0 0 2465 c0 1356 -1 2465 -3
2465 -1 0 -1111 -1109 -2467 -2465z m1256 -470 c90 -16 261 -68 289 -89 13
-10 7 -31 -46 -166 -33 -85 -62 -156 -63 -157 -1 -1 -31 9 -66 24 -208 84
-386 94 -439 26 -12 -14 -21 -38 -21 -54 0 -54 43 -86 245 -185 198 -97 284
-156 335 -226 79 -109 94 -310 32 -442 -60 -129 -170 -217 -332 -268 -68 -21
-93 -23 -260 -22 -200 1 -269 13 -392 67 l-58 26 0 182 c0 168 1 181 18 176 9
-3 50 -19 91 -36 111 -47 224 -73 337 -79 113 -5 158 5 195 44 17 18 24 37 24
66 0 35 -6 46 -42 78 -24 21 -96 61 -170 94 -249 113 -338 181 -396 304 -31
65 -32 72 -32 197 0 127 1 132 32 196 66 133 213 226 398 252 73 10 240 6 321
-8z"/>
</g>
</svg>
